# xmcd
#
# Track frame offsets:
#	150
#	22613
#	36141
#	48711
#	65763
#	83319
#	94310
#	104821
#	116776
#	129620
#	145171
#	160331
#	173148
#	185657
#	198661
#	210116
#	221099
#	234085
#	244778
#
# Disc length: 3420 seconds
#
# Revision: 0
# Processed by: cddbd v1.4PL0 Copyright (c) Steve Scherf et al.
# Submitted via: dBpowerAMP V4.0
#
DISCID=0e0d5a13
DTITLE=jimmy reed - bleus
DYEAR=1900
DGENRE=Blues
TTITLE0=Sloppy Drunk
TTITLE1=Kansas City
TTITLE2=Little Rain
TTITLE3=Mojo Hande
TTITLE4=Down in Mississipi
TTITLE5=Harmonica Classique
TTITLE6=Ain't that loving you baby
TTITLE7=Hush Hush
TTITLE8=You got me crasy
TTITLE9=Big legged woman
TTITLE10=Hearthaches and troubel
TTITLE11=Shame,shame,shame
TTITLE12=Honest i do
TTITLE13=Bright lights,big city
TTITLE14=Aw shucks,hush your mouth
TTITLE15=Ends and odds
TTITLE16=Big boss man
TTITLE17=Divine secrets of the Ya Ya Sisterhood
TTITLE18=Boggie in the dark
EXTD=johnny
EXTT0=
EXTT1=
EXTT2=
EXTT3=
EXTT4=
EXTT5=
EXTT6=
EXTT7=
EXTT8=
EXTT9=
EXTT10=
EXTT11=
EXTT12=
EXTT13=
EXTT14=
EXTT15=
EXTT16=
EXTT17=
EXTT18=
PLAYORDER=
